<?xml version="1.0" standalone="no"?><!DOCTYPE svg PUBLIC "-//W3C//DTD SVG 1.1//EN" "http://www.w3.org/Graphics/SVG/1.1/DTD/svg11.dtd"><svg class="icon" width="48px" height="48.00px" viewBox="0 0 1024 1024" version="1.1" xmlns="http://www.w3.org/2000/svg"><path fill="#BFCBD9" d="M641 299.6V104.8c0-22.6-18.3-40.9-40.9-40.9H168.2c-22.2 0-40.1 18-40.1 40.1v815.4c0 22.2 18 40.1 40.1 40.1H856c22.2 0 40.1-18 40.1-40.1V360.7c0-22.5-18.2-40.7-40.7-40.7h-194c-11.3 0-20.4-9.1-20.4-20.4z m126.1 499.1c0 17.1-14 31.1-31.1 31.1H287.9c-17.1 0-31.1-14-31.1-31.1s14-31.1 31.1-31.1h448.2c17.1 0 31 14 31 31.1z m0-160.6c0 17.1-14 31.1-31.1 31.1H287.9c-17.1 0-31.1-14-31.1-31.1s14-31.1 31.1-31.1h448.2c17.1 0.1 31 14 31 31.1z m0-159c0 17.1-14 31.1-31.1 31.1H287.9c-17.1 0-31.1-14-31.1-31.1s14-31.1 31.1-31.1h448.2c17.1 0 31 14 31 31.1zM710.7 90.6l157 157c9.9 9.9 2.9 26.9-11.1 26.9h-157c-8.7 0-15.7-7-15.7-15.7v-157c-0.1-14 16.9-21.1 26.8-11.2z" /></svg>