<?xml version="1.0" standalone="no"?><!DOCTYPE svg PUBLIC "-//W3C//DTD SVG 1.1//EN" "http://www.w3.org/Graphics/SVG/1.1/DTD/svg11.dtd"><svg t="1621579318411" class="icon" viewBox="0 0 1024 1024" version="1.1" xmlns="http://www.w3.org/2000/svg" p-id="4337" xmlns:xlink="http://www.w3.org/1999/xlink" width="25" height="25"><defs><style type="text/css"></style></defs><path d="M189.5330912 833.8214784a455.1276608 455.1276608 0 0 1 0-643.6429568A45.5276608 45.5276608 0 0 1 253.8278784 254.52295787a364.0723392 364.0723392 0 1 0 514.60654613 0 45.5276608 45.5276608 0 0 1 64.34443627-64.34443627A455.1276608 455.1276608 0 0 1 189.5330912 833.8214784z m321.7718304-776.9491392c25.17178133 0 45.5276608 20.3558784 45.52765973 45.5276608V512a45.5276608 45.5276608 0 0 1-91.00567253 0V102.4c0-25.12213333 20.3558784-45.5276608 45.4780128-45.5276608z" p-id="4338"></path></svg>