<?xml version="1.0" standalone="no"?><!DOCTYPE svg PUBLIC "-//W3C//DTD SVG 1.1//EN" "http://www.w3.org/Graphics/SVG/1.1/DTD/svg11.dtd"><svg t="1623717120160" class="icon" viewBox="0 0 1024 1024" version="1.1" xmlns="http://www.w3.org/2000/svg" p-id="5189" width="128" height="128" xmlns:xlink="http://www.w3.org/1999/xlink"><defs><style type="text/css"></style></defs><path d="M511.98077393 961.95909307a446.50162002 446.50162002 0 0 1-250.67905928-76.33275557A283.11843427 283.11843427 0 0 1 511.98077393 716.51615029a283.48659844 283.48659844 0 0 1 250.76087315 169.23290889A446.86978418 446.86978418 0 0 1 511.98077393 961.95909307z m284.0183912-100.95886406A323.94377724 323.94377724 0 0 0 511.98077393 675.60899346a324.02559111 324.02559111 0 0 0-284.0183921 185.39123555A448.3424417 448.3424417 0 0 1 62.00204521 511.98036435a447.03341279 447.03341279 0 0 1 131.76195294-318.25768183A447.64702031 447.64702031 0 0 1 511.98077393 62.00163653a447.60611338 447.60611338 0 0 1 318.2167749 131.76195292A447.44248477 447.44248477 0 0 1 961.95950175 511.98036435a448.99695615 448.99695615 0 0 1-165.9194288 349.06077159zM511.98077393 266.53742158a163.62862822 163.62862822 0 0 0-163.62862911 163.6286291 163.87407158 163.87407158 0 0 0 163.62862911 163.62862823 163.62862822 163.62862822 0 0 0 163.62862821-163.62862823 163.62862822 163.62862822 0 0 0-163.62862821-163.6286291z m0 286.35010049a122.72147138 122.72147138 0 0 1-122.7214714-122.72147139 122.72147138 122.72147138 0 0 1 122.7214714-122.72147138 122.72147138 122.72147138 0 0 1 122.72147138 122.72147138 122.72147138 122.72147138 0 0 1-122.72147138 122.72147139z" p-id="5190"></path></svg>